# xmcd
#
# Track frame offsets:
#	183
#	16638
#	40205
#	58568
#	76993
#
# Disc length: 1273 seconds
# Revision: 0
# Processed by: cddbd v1.5.2PL0 Copyright (c) Steve Scherf et al.
# Submitted via: dBpowerAMP V12.0
#
DISCID=2d04f705
DTITLE=Color Me Badd - I Wanna Sex You Up
DYEAR=1991
DGENRE=New Jack Swing
TTITLE0=I Wanna Sex You Up [Smoothed Out Mix]
TTITLE1=I Wanna Sex You Up [Smoothed Out Mix - Long Version]
TTITLE2=I Wanna Sex You Up [Instrumental]
TTITLE3=I Wanna Sex You Up [Master Mix]
TTITLE4=I Wanna Sex You Up [Freeze Mix]
EXTD=
EXTT0=
EXTT1=
EXTT2=
EXTT3=
EXTT4=
PLAYORDER=
